<svg xmlns="http://www.w3.org/2000/svg" width="96.995" height="84" viewBox="0 0 96.995 84">
  <defs>
    <g id="petal" transform="scale(0.75)">
      <path d="M1.5,0 C8,-8.5 15,-9.5 22.5,-5 C23.5,-3.5 20.5,-1.5 17,0 C20.5,1.5 23.5,3.5 22.5,5 C15,9.5 8,8.5 1.5,0 Z"
            fill="none" stroke="#23445c" stroke-width="1"/>
    </g>
    <g id="center">
      <circle r="2.6" fill="none" stroke="#23445c" stroke-width="0.9" opacity="0.6"/>
    </g>
    <g id="hex">
      <path d="M0,-28 L24.2487,-14 L24.2487,14 L0,28 L-24.2487,14 L-24.2487,-14 Z"
            fill="none" stroke="#23445c" stroke-width="1.6" opacity="0.45"/>
      <circle r="23" fill="none" stroke="#23445c" stroke-width="1.1" opacity="0.35"/>
      <use href="#petal" transform="rotate(-90)"/>
      <use href="#petal" transform="rotate(-18)"/>
      <use href="#petal" transform="rotate(54)"/>
      <use href="#petal" transform="rotate(126)"/>
      <use href="#petal" transform="rotate(198)"/>
      <use href="#center"/>
    </g>
  </defs>
  <use href="#hex" x="0" y="0"/>
  <use href="#hex" x="48.497" y="0"/>
  <use href="#hex" x="96.995" y="0"/>
  <use href="#hex" x="24.249" y="42"/>
  <use href="#hex" x="72.746" y="42"/>
  <use href="#hex" x="0" y="84"/>
  <use href="#hex" x="48.497" y="84"/>
  <use href="#hex" x="96.995" y="84"/>
</svg>