<svg xmlns="http://www.w3.org/2000/svg" width="96.995" height="84" viewBox="0 0 96.995 84">
  <defs>
    <g id="petal">
      <path d="M1.5,0 C8,-8.5 13,-10 19,-6.5 C22,-1.2 19,-1 15.5,0 C19,1 22,1.2 19,6.5 C13,10 8,8.5 1.5,0 Z"
            fill="rgba(35,68,92,0.07)" stroke="#23445c" stroke-width="1"/>
    </g>
    <g id="center">
      <circle r="2.6" fill="none" stroke="#23445c" stroke-width="0.9" opacity="0.6"/>
      <circle r="1.7" fill="#c79a2e" opacity="0.75"/>
      <g fill="#c79a2e" opacity="0.7">
        <circle cx="3.4" cy="0" r="0.7"/>
        <circle cx="1.7" cy="-2.94" r="0.7"/>
        <circle cx="-1.7" cy="-2.94" r="0.7"/>
        <circle cx="-3.4" cy="0" r="0.7"/>
        <circle cx="-1.7" cy="2.94" r="0.7"/>
        <circle cx="1.7" cy="2.94" r="0.7"/>
      </g>
    </g>
    <g id="hex">
      <path d="M0,-28 L24.2487,-14 L24.2487,14 L0,28 L-24.2487,14 L-24.2487,-14 Z"
            fill="none" stroke="#23445c" stroke-width="1.6" opacity="0.45"/>
      <circle r="23" fill="none" stroke="#23445c" stroke-width="1.1" opacity="0.35"/>

      <use href="#petal" transform="rotate(-90)"/>
      <use href="#petal" transform="rotate(-18)"/>
      <use href="#petal" transform="rotate(54)"/>
      <use href="#petal" transform="rotate(126)"/>
      <use href="#petal" transform="rotate(198)"/>

      <use href="#center"/>

      <g fill="#b0332e" opacity="0.6">
        <circle cx="0" cy="-27" r="1.6"/>
        <circle cx="23.4" cy="-13.5" r="1.6"/>
        <circle cx="23.4" cy="13.5" r="1.6"/>
        <circle cx="0" cy="27" r="1.6"/>
        <circle cx="-23.4" cy="13.5" r="1.6"/>
        <circle cx="-23.4" cy="-13.5" r="1.6"/>
      </g>
    </g>
  </defs>

  <use href="#hex" x="0" y="0"/>
  <use href="#hex" x="48.497" y="0"/>
  <use href="#hex" x="96.995" y="0"/>
  <use href="#hex" x="24.249" y="42"/>
  <use href="#hex" x="72.746" y="42"/>
  <use href="#hex" x="0" y="84"/>
  <use href="#hex" x="48.497" y="84"/>
  <use href="#hex" x="96.995" y="84"/>
</svg>